<svg xmlns="http://www.w3.org/2000/svg" version="1.1" xmlns:xlink="http://www.w3.org/1999/xlink" xmlns:svgjs="http://svgjs.dev/svgjs" width="2000" height="3430" viewBox="0 0 2000 3430"><g transform="matrix(1,0,0,1,0.7631151337758411,1.3886639676113646)"><svg viewBox="0 0 144 247" data-background-color="#000000" preserveAspectRatio="xMidYMid meet" height="3430" width="2000" xmlns="http://www.w3.org/2000/svg" xmlns:xlink="http://www.w3.org/1999/xlink"><g id="tight-bounds" transform="matrix(1,0,0,1,-0.054944289631862375,-0.09999999999999432)"><svg viewBox="0 0 144.10938497863978 247.2" height="247.2" width="144.10938497863978"><g><svg></svg></g><g><svg viewBox="0 0 144.10938497863978 247.2" height="247.2" width="144.10938497863978"><g transform="matrix(1,0,0,1,0,47.21520000000001)"><svg viewBox="0 0 144.10938497863978 152.76959999999997" height="152.76959999999997" width="144.10938497863978"><g><svg viewBox="0 0 144.10938497863978 152.76959999999997" height="152.76959999999997" width="144.10938497863978"><g><svg viewBox="0 0 144.10938497863978 152.76959999999997" height="152.76959999999997" width="144.10938497863978"><g><svg viewBox="0 0 144.10938497863978 152.76959999999997" height="152.76959999999997" width="144.10938497863978"><g id="textblocktransform"><svg viewBox="0 0 144.10938497863978 152.76959999999997" height="152.76959999999997" width="144.10938497863978" id="textblock"><g><svg viewBox="0 0 144.10938497863978 152.76959999999997" height="152.76959999999997" width="144.10938497863978"><g transform="matrix(1,0,0,1,0,0)"><svg width="144.10938497863978" viewBox="1.75 -35.5 35.25387680278867 35.8" height="152.76959999999997" data-palette-color="#ffffff"><g transform="matrix(1,0,0,1,0,0)"><g><svg width="3.7109792517429225" viewBox="3.16 -36.36 24.570000000000004 36.36" height="5.491391262694729" data-palette-color="#ffffff" id="scriptelement" x="29.782077176917213" y="-8.112005631347365"><path d="M27.73 0L3.16 0 3.16-36.36 27.66-36.36 27.66-30.02 10.85-30.02 10.85-21.36 26.4-21.36 26.4-15.02 10.85-15.02 10.85-6.34 27.73-6.34 27.73 0Z" opacity="1" transform="matrix(1,0,0,1,0,0)" fill="#ffffff" class="undefined-123" data-fill-palette-color="primary" id="yy-123"></path></svg></g></g><path d="M26.271-5.366C26.271-8.33 28.674-10.733 31.638-10.733 34.601-10.733 37.004-8.33 37.004-5.366 37.004-2.403 34.601 0 31.638 0 28.674 0 26.271-2.403 26.271-5.366ZM31.638-0.553C34.296-0.553 36.451-2.708 36.451-5.366 36.451-8.025 34.296-10.18 31.638-10.18 28.979-10.18 26.824-8.025 26.824-5.366 26.824-2.708 28.979-0.553 31.638-0.553Z" fill="#ffffff" id="scriptcircle" data-fill-palette-color="primary"></path><path d="M23.15-33.75L23.15-33.75 21.95-27.9 18.85-28.75Q15.55-29.5 13.1-29.5L13.1-29.5Q9.7-29.5 9.7-26.25L9.7-26.25Q9.7-25 10.88-23.98 12.05-22.95 13.85-22.28 15.65-21.6 17.7-20.6 19.75-19.6 21.55-18.45 23.35-17.3 24.53-15.3 25.7-13.3 25.7-10.7L25.7-10.7Q25.7-5.55 22.38-2.63 19.05 0.3 13 0.3L13 0.3Q9.9 0.3 6.83-0.53 3.75-1.35 1.75-2.45L1.75-2.45 3.9-7.8Q8.5-5.7 13-5.7L13-5.7Q15.55-5.7 17-6.88 18.45-8.05 18.45-9.9 18.45-11.75 16.8-12.98 15.15-14.2 12.8-15.18 10.45-16.15 8.1-17.38 5.75-18.6 4.1-20.83 2.45-23.05 2.45-26.1L2.45-26.1Q2.45-30.65 5.3-33.08 8.15-35.5 12.98-35.5 17.8-35.5 23.15-33.75Z" opacity="1" transform="matrix(1,0,0,1,0,0)" fill="#ffffff" class="wordmark-text-0" data-fill-palette-color="primary" id="text-0"></path></svg></g></svg></g></svg></g></svg></g><g></g></svg></g></svg></g></svg></g><path d="M0 41.215L0 1 144.109 1 144.109 41.215 130.332 41.215 130.332 14.777 13.777 14.777 13.777 41.215 0 41.215M0 205.985L0 246.2 144.109 246.2 144.109 205.985 130.332 205.985 130.332 232.423 13.777 232.423 13.777 205.985 0 205.985" fill="#ffffff" stroke="transparent" data-fill-palette-color="tertiary"></path></svg></g><defs></defs></svg><rect width="144.10938497863978" height="247.2" fill="none" stroke="none" visibility="hidden"></rect></g></svg></g></svg>